<svg id="Layer_1" data-name="Layer 1" xmlns="http://www.w3.org/2000/svg" viewBox="0 0 380.1 286.19"><defs><style>.cls-1{fill:#424242;}.cls-2{fill:gray;}</style></defs><path class="cls-1" d="M183.87.43c3.39-1.32,7,.61,9.36,3,3.68,3.85,5.76,8.88,7.66,13.77,1.85,4.27.62,9.09,2,13.46a11.3,11.3,0,0,0,6.17,7.09c3.68,1.74,8.07,2.8,12,1.28,3.62-1.44,6-4.71,8.3-7.64,2.12-2.82,5.37-4.41,8.3-6.25,4.56-2.56,9.84-5.1,15.19-3.78,3,.64,5,3.44,5.76,6.28,1.16,4.44.39,9.11-.58,13.51-.76,2.95-1.27,6.06-3,8.62-2.15,3.34-4.82,6.76-4.9,10.93.05,4,2.3,7.62,5,10.48A11.23,11.23,0,0,0,263.82,75c4.43,0,8.44-2.53,12.89-2.21,5.57.3,11.39.67,16.43,3.3,2.71,1.48,5.31,4.12,5.26,7.42.09,3.91-2.16,7.36-4.63,10.19a57.48,57.48,0,0,1-9.58,8.45c-3.9,2.13-8.68,2.78-11.87,6.11-2.53,2.48-3.24,6.14-3.33,9.56h-3.15a18.31,18.31,0,0,1,2.34-9.4,16.8,16.8,0,0,1,8.4-6.55c2.47-1.09,5.25-1.63,7.36-3.42,3.55-2.85,7.12-5.85,9.6-9.71,1.18-1.88,2.07-4.19,1.48-6.42-.94-2.12-3.06-3.42-5.15-4.23-4.06-1.52-8.45-1.83-12.75-2.08-4.14-.36-7.9,1.92-12,2.12a14.57,14.57,0,0,1-11.91-4.2c-3.29-3.29-5.91-7.58-6.23-12.31-.22-3.67,1.25-7.19,3.2-10.22,1.29-2.13,3-4.07,3.66-6.54,1.3-4.71,2.51-9.58,2.05-14.51a7.87,7.87,0,0,0-2.32-5.16c-1.76-1.15-4-1.07-6-.69a32.86,32.86,0,0,0-9.68,4.31c-2.25,1.41-4.67,2.73-6.26,4.93-2.46,3.23-5.16,6.55-9,8.17-5.05,2.19-10.9.89-15.61-1.55a14.48,14.48,0,0,1-7.55-10c-.89-3.41-.28-7-1.12-10.38a48.39,48.39,0,0,0-6-12.55c-1.51-2-3.54-4-6.16-4.14-2.82.26-4.94,2.5-6.5,4.68a48.36,48.36,0,0,0-5.3,11c-1.26,3.11-.59,6.54-1.17,9.78a15,15,0,0,1-6.28,10.69A21.44,21.44,0,0,1,154,42.88a15.28,15.28,0,0,1-10.15-5.46c-2.18-2.26-3.7-5.2-6.44-6.87a45.27,45.27,0,0,0-11.28-5.84c-2.28-.67-4.91-1-7.08.2-2.09,1.65-2.61,4.54-2.67,7.06A44.24,44.24,0,0,0,119,46c1.58,3.31,4.17,6.09,5.41,9.59A14.26,14.26,0,0,1,123.93,67c-2,4.07-5,7.84-9.14,9.79a16.17,16.17,0,0,1-10.5.71c-2.74-.52-5.36-1.82-8.2-1.68a45.59,45.59,0,0,0-12.94,1.85c-2.35.82-4.85,2.14-5.86,4.55-.51,2.36.47,4.75,1.77,6.69,2.49,3.73,6,6.64,9.44,9.4,2.2,1.83,5.08,2.38,7.64,3.53a16.49,16.49,0,0,1,8.23,6.76,18.28,18.28,0,0,1,2.07,9.08l-3.17,0c0-3.76-1-7.82-4-10.3-3.67-3.27-9-3.44-12.75-6.59A51.84,51.84,0,0,1,77.27,92c-1.93-2.57-3.48-5.66-3.3-9s2.78-5.81,5.5-7.25c4.87-2.42,10.43-2.86,15.78-3.12,5-.49,9.58,2.7,14.62,2.17,4.15-.28,7.52-3.23,9.71-6.57,2.13-3,3.34-6.85,2.2-10.45-1.23-4.63-5.3-7.86-6.39-12.54-1.37-5-2.59-10.25-2-15.5A11,11,0,0,1,117,22.42c2.75-1.8,6.29-1.75,9.37-1,4.76,1.28,9,3.91,13,6.61,3.86,2.42,5.64,7,9.35,9.54a12,12,0,0,0,10.32,1.63c3.87-1,7.85-3,9.68-6.7,2-3.93,1.24-8.44,2-12.63a54.74,54.74,0,0,1,3.75-9.52C176.57,6.31,179.33,2,183.87.43Zm-6.55,116.89a8.85,8.85,0,1,0,6.91-8.29A8.86,8.86,0,0,0,177.32,117.32Zm14.48,0a5.65,5.65,0,1,1-7.22-5.09A5.67,5.67,0,0,1,191.8,117.33Z"/><path class="cls-1" d="M81.75,157.44c6.85-3.78,15-4.78,22.67-3.78,5.43.89,11,2.43,15.3,6l-2.26,2.26A26,26,0,0,0,107,157.4c-8-1.81-16.79-1.05-24,3a27.16,27.16,0,0,0-10.67,10.72c-4,7.09-4.93,15.52-4,23.49.83,7.18,3.94,14.3,9.46,19.11,5.37,4.66,12.58,6.77,19.61,6.87a41.71,41.71,0,0,0,18.69-3.89,2.54,2.54,0,0,0,1.88-2.39c.07-8.44,0-16.87,0-25.31h3.19q0,12.42,0,24.84a5.57,5.57,0,0,1-3,5.38,44.53,44.53,0,0,1-21.65,4.53c-7.77-.23-15.67-2.84-21.43-8.18s-9-12.86-9.92-20.52c-1-8.42,0-17.27,4-24.84A30.48,30.48,0,0,1,81.75,157.44ZM338.61,175.6a16.56,16.56,0,0,0,7.95,11.74,23.48,23.48,0,0,0,10.34,3.55l0-3.17a22,22,0,0,1-10.6-4.42c-5-4.26-6-11.94-3.49-17.81,1.76-4.16,5.77-6.94,10-8.09a25.58,25.58,0,0,1,19.81,2.65c.76-.74,1.51-1.49,2.26-2.25-5.64-4-12.93-5.12-19.67-4.18-5.64.79-11.29,3.64-14.32,8.62C338.46,166.18,337.94,171.07,338.61,175.6ZM220.67,157.3c-7.62,21.33-15.46,42.59-23,63.95l3.08.83c6.11-17.39,12.51-34.68,18.73-52,1.6-4.17,2.89-8.48,4.67-12.57a22.59,22.59,0,0,1,7.52-.12c.75,0,.81.89,1.08,1.42q11.43,31.72,22.9,63.41l3.07-1q-11.63-32-23.15-64.06a4,4,0,0,0-3.09-2.89,27.92,27.92,0,0,0-8.56,0A4.07,4.07,0,0,0,220.67,157.3Zm-76.11,59.56a7.09,7.09,0,0,0,.75,4,5.07,5.07,0,0,0,4.43,2.1h31.13v-3.19H150.15c-.8,0-2,.05-2.27-.92a30.85,30.85,0,0,1-.11-4.08q0-27.47,0-54.93c0-.74-.07-1.72.74-2.08a6.41,6.41,0,0,1,2.05-.24c10,0,20,0,30,0v-3.19c-10.42,0-20.84,0-31.26,0a4.65,4.65,0,0,0-4.69,4.61C144.54,178.24,144.61,197.55,144.56,216.86Zm130.87-57.05q0,30.94,0,61.9h3.19q0-31.17,0-62.35a1.53,1.53,0,0,1,1.53-1.84c3.71-.12,7.43,0,11.14,0,5.35,0,11-.12,15.88,2.31a13.38,13.38,0,0,1,7.53,9.29c1,4.81.44,10.4-3.07,14.1-3.1,3.4-7.62,4.81-11.82,6.29,2.28,1.1,4.83,1.82,6.72,3.59a21.08,21.08,0,0,1,4.32,6.39c1.6,3.35,2.89,6.85,4.32,10.27,1.6,4.07,3.51,8.05,4.53,12.32l3.17-.59c-1.28-5.12-3.63-9.87-5.54-14.77-2.52-5.91-4.4-12.59-9.6-16.8a21.38,21.38,0,0,0,6.38-4.69,17.18,17.18,0,0,0,4.21-11.65,18,18,0,0,0-3.62-11.8c-3.26-4.12-8.42-6.27-13.5-7-5.86-.72-11.77-.32-17.65-.43-2.1.05-4.44-.35-6.26,1A5,5,0,0,0,275.43,159.81ZM0,200.12c.45,5,1.65,10.11,4.64,14.25,3.79,5.48,10.26,8.58,16.76,9.31,7.47.86,15.57-.24,21.73-4.84,6.32-4.7,9.32-12.74,9.4-20.44,0-13.77,0-27.54,0-41.31H49.35c0,13.63,0,27.27,0,40.9-.07,6.57-2.28,13.54-7.51,17.82-5.4,4.41-12.79,5.41-19.55,4.75-5.87-.56-11.8-3.23-15.18-8.23C4.23,208.15,3.22,203,3.21,198q0-20.44,0-40.89H0Zm365.52-9.18a12.72,12.72,0,0,1,9.91,5.32c1.42,2.43,1.57,5.38,1.46,8.13a16.14,16.14,0,0,1-6.22,12c-4.71,3.67-11,4.64-16.79,4.25a28,28,0,0,1-13.42-4.46c-.76.73-1.53,1.47-2.28,2.21,5.68,4.26,13,5.81,20,5.47,6.44-.32,13.11-2.65,17.34-7.73a20.41,20.41,0,0,0,4.56-11v-3.92c-.33-2.93-1.06-6-3.13-8.22a16.17,16.17,0,0,0-11.51-5.23C365.47,188.82,365.49,189.88,365.52,190.94Zm-210.65,1.37h22c0-1.06,0-2.13,0-3.19-7.35,0-14.7,0-22,0Zm59.32,13.4H241.5v-3.19q-13.67,0-27.32,0C214.18,203.58,214.18,204.64,214.19,205.71Z"/><path class="cls-2" d="M103.09,260.28a10.43,10.43,0,0,1,2.79,0c.33,3.41.07,6.86.12,10.29a9.67,9.67,0,0,1,3.78-2.44,5.78,5.78,0,0,1,5.91,1.61c1.27,1.51,1.45,3.57,1.47,5.46,0,3.49,0,7,0,10.46a10.55,10.55,0,0,1-3,0c-.05-3.62,0-7.24,0-10.86,0-1.7-.74-3.8-2.63-4.16-2.34-.55-4.08,1.46-5.48,3,0,4,0,8,0,12a11.36,11.36,0,0,1-3,0C103,277.22,103,268.75,103.09,260.28ZM208,285.71a11.73,11.73,0,0,0,3,0c0-8.47.09-16.94,0-25.4a25.51,25.51,0,0,0-2.9,0C208,268.74,208,277.22,208,285.71Zm81.5-15.34a9.49,9.49,0,0,0-3.42-2.22,6.53,6.53,0,0,0-6.48,1.81c-1.68,1.89-2.16,4.52-2.2,7a11.61,11.61,0,0,0,1.62,6.68,6.48,6.48,0,0,0,5,2.58,9,9,0,0,0,5.82-3.06c0,.85,0,1.71,0,2.57,1,0,3,.63,2.68-1q0-12.12,0-24.24a8.24,8.24,0,0,0-3,0C289.49,263.73,289.47,267.05,289.51,270.37Zm-5.09.16c2.18-.18,3.75,1.6,5.07,3.07q0,3.34,0,6.69c-1.32,1.49-2.86,3.3-5.06,3.18a3.78,3.78,0,0,1-3.47-3,12.57,12.57,0,0,1,0-6.64C281.37,272.19,282.64,270.59,284.42,270.53Zm34.24,15.17c1,0,3.26.71,3-1.05,0-8.12.07-16.25-.05-24.37a27.86,27.86,0,0,0-2.89,0C318.59,268.73,318.66,277.21,318.66,285.7ZM164.28,265c.82.07,2.12.07,2.28-1a2.74,2.74,0,0,0-.35-2.32,3.27,3.27,0,0,0-2.62-.09C162.5,262.38,162.62,265,164.28,265ZM33.91,285.67a11.17,11.17,0,0,0,3.11,0c0-7,0-14.09,0-21.13,2.62,6.79,5.18,13.6,7.81,20.38.32,1.27,1.95.93,2.92.75a19.9,19.9,0,0,0,1.49-3.33c2.37-5.94,4.72-11.88,7.12-17.81,0,7,0,14.09,0,21.13a8.08,8.08,0,0,0,2.64.06c.72-.09.38-1.05.49-1.52q0-10.08,0-20.16c0-.7,0-1.73-.82-2a9.27,9.27,0,0,0-3.6.08c-1.11.54-1.37,1.88-1.85,2.9Q50,273.14,46.68,281.2c-2.37-5.93-4.62-11.91-7-17.82-.73-1.78-3-1.4-4.52-1.36a1.28,1.28,0,0,0-1.24,1.57C33.88,271,33.87,278.31,33.91,285.67ZM66,280.49a6.82,6.82,0,0,0,4.68,5.14,12.11,12.11,0,0,0,8.57-.66c1.2-.33.63-1.83.73-2.73-2.79.94-5.94,2.1-8.79.75-2-1-2.42-3.38-2.53-5.37,3.43,0,6.86,0,10.28,0,.59,0,1.47,0,1.68-.68.43-2.92-.42-6.43-3.13-8-3.33-1.9-8.21-1.11-10.33,2.23C65.4,273.9,65.3,277.39,66,280.49Zm10.16-9.32c1.27,1,1.47,2.72,1.62,4.22-3.05,0-6.1,0-9.16,0A7.61,7.61,0,0,1,70,271.8,4.63,4.63,0,0,1,76.14,271.17ZM85.52,280c.4,2.49,2,5,4.49,5.71a8.12,8.12,0,0,0,7.58-1.27c1-.78.54-2.22.39-3.27-1.4.86-2.71,2.09-4.41,2.26a4.12,4.12,0,0,1-4-1.66c-1.29-2-1.25-4.61-1-6.92.24-1.95,1.47-4.08,3.61-4.3,2.1-.4,3.91.92,5.53,2.05.47-.95.76-2.33-.18-3.1-3.15-2.54-8.58-2-10.77,1.58C85.15,273.7,85,277,85.52,280Zm38.27-7.73c2.37-1.22,5.22-2.61,7.87-1.38,1.69.91,1.5,3.08,1.56,4.71-2.9,0-6.1-.18-8.61,1.55a5.06,5.06,0,0,0-1,7,6.37,6.37,0,0,0,4.65,2.08,8.46,8.46,0,0,0,5.29-2.44l.06,2q1.26,0,2.52-.06c0-3.65,0-7.29,0-11,0-1.7-.08-3.58-1.2-5s-3.21-1.85-5-1.88a10.46,10.46,0,0,0-6,1.69C123.11,270.25,123.64,271.41,123.79,272.25Zm9.4,5.51v3.54c-1.4,1.53-3.42,3-5.61,2.23-2.14-.57-2.47-3.87-.61-5S131.11,277.83,133.19,277.76Zm12-6.87c0-.89,0-1.77-.05-2.65-.88,0-1.74,0-2.61.05-.09,5.79,0,11.59,0,17.38a10.55,10.55,0,0,0,3,0c0-4,0-8,0-12a11,11,0,0,1,3.29-2.8,3.27,3.27,0,0,1,3.93.92,6.72,6.72,0,0,1,.92,3.88c0,3.34,0,6.67,0,10a10.26,10.26,0,0,0,3,0c0-3.49,0-7,0-10.48,0-1.89-.21-3.95-1.49-5.46a5.82,5.82,0,0,0-6.28-1.48A10,10,0,0,0,145.22,270.89Zm26.26,6.47c0,2.6.63,5.49,2.73,7.24a7.94,7.94,0,0,0,9.63-.22c.92-.72.59-2.06.42-3a10.74,10.74,0,0,0-2.54,1.41c-1.94,1.2-5,.88-6.13-1.24a11.09,11.09,0,0,1-.74-7c.28-1.88,1.56-3.83,3.6-4,2.1-.39,3.87,1,5.51,2.06.52-1,.72-2.6-.44-3.31a7.79,7.79,0,0,0-9.54.57C172,271.79,171.45,274.7,171.48,277.36Zm17.87-5.13c2.31-1.24,5.08-2.53,7.69-1.41,1.78.87,1.6,3.1,1.66,4.77-2.86,0-6-.19-8.49,1.46a5,5,0,0,0-.8,7.39,6.66,6.66,0,0,0,4.1,1.73,8.17,8.17,0,0,0,5.57-2.46l0,2a16.25,16.25,0,0,0,2.61,0c0-3.65,0-7.29,0-10.93a8.43,8.43,0,0,0-1-4.64,5.45,5.45,0,0,0-4.15-2.14,10.86,10.86,0,0,0-7,1.56C188.58,270.18,189.05,271.39,189.35,272.23Zm9.31,5.53c0,1.18,0,2.35,0,3.53-1.37,1.5-3.32,2.93-5.47,2.28-2.15-.44-2.66-3.63-.94-4.87S196.52,277.84,198.66,277.76Zm32-9.48c-.87,0-1.74,0-2.6,0-.1,5.82,0,11.63,0,17.45a7.69,7.69,0,0,0,2.87-.05c.23-4,.05-7.94.09-11.9,1.27-1.46,2.75-3.45,4.95-3.15,1.81.2,2.64,2.17,2.7,3.78.15,3.78,0,7.58.09,11.36a17.9,17.9,0,0,0,2.93,0c.05-4,0-8,0-12,1.09-1.15,2.12-2.57,3.71-3a3,3,0,0,1,3.61,2.14c.81,4.24-.06,8.63.48,12.88a7.85,7.85,0,0,0,2.86,0c0-3.5,0-7,0-10.49,0-1.92-.2-4-1.49-5.54a5.4,5.4,0,0,0-5.26-1.6,9.88,9.88,0,0,0-4.46,3.05,5.3,5.3,0,0,0-4.34-3.14c-2.44-.39-4.54,1.24-6.1,2.92C230.74,270,230.73,269.15,230.7,268.28Zm26.3,6.47c-.49,3.21-.25,7,2.2,9.39a8.86,8.86,0,0,0,11.33-.07c2.08-1.91,2.77-4.87,2.7-7.59-.05-2.45-.7-5.1-2.6-6.78-2.13-1.84-5.21-2.06-7.87-1.5A7.65,7.65,0,0,0,257,274.75Zm11.56-3a7.41,7.41,0,0,1,1.56,4.76,8.58,8.58,0,0,1-1.17,5.11c-1.45,2.09-4.6,2.41-6.7,1.2s-2.39-4.07-2.34-6.31.91-5,3.26-5.78A5.31,5.31,0,0,1,268.56,271.76Zm29.91,8.39a6.88,6.88,0,0,0,4.7,5.46c2.82,1,5.93.47,8.64-.64,1.17-.37.65-1.83.69-2.73-2.78,1-5.95,2.1-8.8.73-2-1-2.37-3.37-2.5-5.35,3.44,0,6.88,0,10.31,0,.59,0,1.46,0,1.67-.7.4-2.93-.44-6.43-3.17-8-3.25-1.82-7.95-1.15-10.14,2C298,273.58,297.88,277.06,298.47,280.15Zm10.22-9c1.29,1,1.48,2.72,1.64,4.23-3.05,0-6.1,0-9.16,0a7.67,7.67,0,0,1,1.35-3.56A4.62,4.62,0,0,1,308.69,271.16Zm20,4.84c1.75,1.79,4.5,1.9,6.38,3.49a2.34,2.34,0,0,1-.91,3.82c-2.38,1-4.74-.34-6.86-1.32-.27.88-.54,2.1.22,2.8a8.62,8.62,0,0,0,9.06.13,4.86,4.86,0,0,0,.81-7.29c-1.81-1.72-4.57-1.83-6.43-3.47a2.21,2.21,0,0,1,.76-3.58c2.06-.83,4.16.26,6,1.05-.1-.91.48-2.34-.63-2.81a7.8,7.8,0,0,0-7.74.25A4.66,4.66,0,0,0,328.68,276Zm-165.35,9.69a7.8,7.8,0,0,0,2.81,0,6,6,0,0,0,.18-1.88c0-5.15,0-10.31,0-15.47a21.75,21.75,0,0,0-2.91-.06C163.27,274.07,163.32,279.88,163.33,285.69Z"/></svg>